PathFileType	4	(X/Y/Z)	Patient4_TMGait_0pt2_01_left_16.trc.trc
DataRate	CameraRate	NumFrames	NumMarkers	Units	OrigDataRate	OrigDataStartFrame	OrigNumFrames
42.042042042042	42.042042042042	4	33	mm	42.042042042042	1	       141
Frame#	Time	Sacral			L.Shoulder			Chest			R.Shoulder			Neck			R.ASIS			L.ASIS			R.Thigh.Superior			R.Thigh.Lateral			R.Thigh.Inferior			R.Patella			L.Thigh.Superior			L.Thigh.Lateral			L.Thigh.Inferior			L.Patella			L.Shank.Superior			L.Shank.Lateral			L.Shank.Inferior			R.Shank.Superior			R.Shank.Lateral			R.Shank.Inferior			R.Heel			R.Midfoot.Superior			R.Midfoot.Lateral			R.Toe			L.Heel			L.Midfoot.Lateral			L.Midfoot.Superior			L.Toe			L.Elbow			L.Wrist			R.Elbow			R.Wrist			
		X1	Y1	Z1	X2	Y2	Z2	X3	Y3	Z3	X4	Y4	Z4	X5	Y5	Z5	X6	Y6	Z6	X7	Y7	Z7	X8	Y8	Z8	X9	Y9	Z9	X10	Y10	Z10	X11	Y11	Z11	X12	Y12	Z12	X13	Y13	Z13	X14	Y14	Z14	X15	Y15	Z15	X16	Y16	Z16	X17	Y17	Z17	X18	Y18	Z18	X19	Y19	Z19	X20	Y20	Z20	X21	Y21	Z21	X22	Y22	Z22	X23	Y23	Z23	X24	Y24	Z24	X25	Y25	Z25	X26	Y26	Z26	X27	Y27	Z27	X28	Y28	Z28	X29	Y29	Z29	X30	Y30	Z30	X31	Y31	Z31	X32	Y32	Z32	X33	Y33	Z33	

1	36.610000000000	692.835097412397	991.270143675396	562.743721037982	881.257565418624	1417.230755696649	386.952461256336	965.735179264342	1355.690453953026	560.370647053760	862.824780071846	1429.015695266179	723.712098250187	841.895655495455	1482.972477057928	541.087122883546	918.128892476330	932.819539023186	696.236717350100	918.479875819172	949.999899647078	422.058478137126	976.600869958534	738.196250261718	643.966855885828	906.384323887727	615.979017401240	694.834121373839	982.824079412404	575.622144416289	607.250354368451	989.860701959669	481.183643220299	605.712350823808	978.473428116906	744.876174989693	442.517570683844	917.092151567899	626.638148744484	357.200754895350	1006.229066745391	549.095536748271	421.658061446898	1005.078123971788	460.726898597714	408.255693155447	933.813822587229	403.798803960784	392.096505556120	792.889209492519	373.620009342310	333.321920066923	770.982598741556	240.652706913428	376.538607910652	948.814763289264	391.743189044580	607.274812026686	871.108741368280	291.827831393317	670.300926616945	893.255905128568	199.340663311356	597.151306754390	738.970564633455	43.123214333836	574.103636931020	914.541677712324	96.790729464439	595.324826003485	829.084538581938	37.046221864526	640.586430418360	1035.446243144336	43.378680324936	610.235063264176	575.040369993481	181.830189459339	399.226863125346	635.812114468021	141.101063433823	318.308948526602	740.210721193946	143.917545897271	344.817492542297	815.876778085831	32.224955285559	311.146795546570	898.540201528988	1058.172162847611	280.625577210608	1028.925346794252	830.630516669571	289.647670146087	823.692621453953	1080.646464704050	847.813846012602	934.405348196367	845.992401809908	894.086325918308	
2	36.633785714286	691.004263248426	988.233766718240	567.443410120671	876.009058882124	1414.464057297121	388.082078658810	963.832394633074	1352.904932801658	559.722793847594	864.419004036609	1426.233450370567	725.136245241704	839.962991111277	1480.451647823932	542.618799341064	918.418666183329	930.437346268990	696.899576460418	914.273659167600	947.736324099825	422.871348999965	977.512606683068	736.420085279769	643.173675766188	909.193761687414	613.522782490316	694.220422320065	984.528247917110	574.091529867626	605.158267104035	991.948768990055	478.955719848439	603.161869878289	980.439917657904	747.933350930948	444.667546471168	923.891038036078	628.061165054009	359.170645782875	1015.571357672819	553.656323769252	424.019964856674	1017.281923690601	464.788651696202	410.048944351128	946.219840738781	406.450335346342	393.624417644670	804.452370898937	375.992131706709	336.409164399261	783.891196358877	242.372399575405	378.407232255102	949.582868358322	389.598964645418	605.399235671023	871.065071393795	290.722756681832	669.253306739644	890.726841204893	198.068256049313	596.088291505798	734.366436762482	43.221054276798	574.127509009378	909.956741597054	96.632468400982	595.001494309154	824.494440354426	37.095990292096	640.555572664316	1030.914962561373	42.969923556826	610.160043751221	588.585730622798	181.568565890526	403.346646194369	648.303680709641	142.885497191298	320.821313612999	753.085167450686	146.160538515956	345.846532651468	829.201136328986	35.825050554769	308.789539027684	879.881638428454	1055.222153838170	283.472471726418	986.165546555284	819.979525022606	292.036950141036	839.834637219936	1077.724122116945	850.870381341373	966.785881061163	853.342749666657	894.557156870191	
3	36.657571428571	689.194119139040	985.386435036248	572.313067547236	870.414898859199	1411.889678075591	389.235450751461	961.854412812474	1350.316372334564	558.905495004625	866.209451313468	1423.640746867175	726.495443595069	837.939037737521	1478.087124645171	544.174450504433	918.788937647993	928.170421651630	697.463948669413	909.930367254400	945.642860580044	423.625397121085	978.269674971598	734.657286767941	642.329200471409	911.747127794396	611.165138075031	693.649990434246	985.892039057538	572.577120638495	603.099264028571	993.620550145995	476.778424668394	600.681897642275	982.171206767850	751.197595484658	446.793422820725	930.486907218527	629.733789543079	361.086624686116	1024.649491172123	558.496273328532	426.316756667502	1029.349226373057	469.268357031057	411.782586232693	958.825109684367	409.367122941543	395.042252505926	816.516950776816	377.825675477227	339.227926353210	798.044613233099	243.508536889847	380.003174456652	949.949742195541	387.514641209050	603.581509845924	870.684344836230	289.647523451851	668.276346350333	887.914957256190	196.845147513149	595.067178895634	729.551523336649	43.322585930424	574.158951649655	905.147534095921	96.475629845491	594.698241005245	819.680486732408	37.140605534065	640.531047971229	1026.158396830186	42.560445885763	610.086050340621	603.825096406179	179.720009036132	406.991784967650	662.718353752756	143.312159866185	322.954865325358	767.791254298642	147.617121269297	346.608849532648	844.919769416281	39.056187722682	306.352871503736	860.055433676028	1052.870743622234	286.230887031498	942.225227604608	810.434730261836	294.704032555890	856.997703849338	1075.350195924839	853.955799201888	1000.730943205299	862.336247203548	894.687848127449	
4	36.681357142857	687.489830254306	982.950498225178	577.206903057257	864.587011860361	1409.713894133631	390.370994227986	959.857776635631	1348.129091744746	557.880061982312	868.207908284967	1421.450824020041	727.691610841589	835.879790900435	1476.060398698433	545.691467216034	919.249182224223	926.181229912590	697.863375235050	905.572487191773	943.899451034508	424.265126074306	978.747360617713	732.997814976942	641.458824089687	913.793108059273	609.061555527297	693.167978326546	986.682102784692	571.158638629976	601.183377060680	994.592817330676	474.779525032878	598.415375194445	983.470728711688	754.598492090827	448.761039810451	936.440601325039	631.664316105377	362.820015318242	1032.904287413206	563.487830946837	428.386737599033	1040.634641646799	474.125206084959	413.334432513052	971.109932235220	412.535825862271	396.228414182834	828.765609818091	378.835666389524	341.530409997802	813.351885239823	243.835407573291	381.139843780334	949.702970404140	385.619339074699	601.931372584763	869.816720323770	288.668917405799	667.440749246361	884.805885656674	195.748977012343	594.152255878957	724.632338090158	43.425910473755	574.198638678059	900.218870566572	96.327348286543	594.435155607170	814.748731502265	37.177585099026	640.516798847937	1021.278052642793	42.167309644245	610.016571534680	620.868063261886	175.808446844011	409.815980541308	679.280869261328	141.894727675746	324.469260596262	784.480185877032	147.977033430820	346.959970701002	863.339342024993	41.712397882155	303.916788184022	839.477046881658	1051.484886650164	288.794940728422	898.552512725128	802.832136743057	297.680985735667	874.864602031960	1073.907764039679	856.925130383343	1035.362910719988	873.354558059578	894.286667186004	
